<svg width="248" height="51" viewBox="0 0 248 51" fill="none" xmlns="http://www.w3.org/2000/svg">
<path d="M4.72125 41.128C3.18525 41.128 2.16125 40.8507 1.64925 40.296C1.13725 39.7413 1.13725 39.1867 1.64925 38.632C2.16125 38.0773 3.18525 37.8 4.72125 37.8C3.95325 37.8 3.33458 37.48 2.86525 36.84C2.39592 36.1573 2.07592 35.3253 1.90525 34.344C1.77725 33.3627 1.77725 32.3813 1.90525 31.4C2.07592 30.376 2.39592 29.544 2.86525 28.904C3.33458 28.2213 3.95325 27.88 4.72125 27.88C3.65458 27.88 2.84392 27.5387 2.28925 26.856C1.73458 26.1307 1.45725 25.32 1.45725 24.424C1.45725 23.528 1.73458 22.7387 2.28925 22.056C2.84392 21.3307 3.65458 20.968 4.72125 20.968C3.27058 20.968 2.28925 20.6907 1.77725 20.136C1.30792 19.5813 1.30792 19.0267 1.77725 18.472C2.28925 17.9173 3.27058 17.64 4.72125 17.64C3.22792 17.64 2.22525 17.4267 1.71325 17C1.24392 16.5733 1.24392 16.168 1.71325 15.784C2.22525 15.3573 3.22792 15.144 4.72125 15.144C3.22792 15.144 2.22525 14.888 1.71325 14.376C1.24392 13.864 1.24392 13.352 1.71325 12.84C2.22525 12.328 3.22792 12.072 4.72125 12.072C3.35592 12.072 2.43858 11.752 1.96925 11.112C1.54258 10.472 1.54258 9.832 1.96925 9.192C2.43858 8.552 3.35592 8.232 4.72125 8.232C4.03858 7.25067 3.84658 6.41866 4.14525 5.736C4.44392 5.05333 4.95592 4.712 5.68125 4.712C6.44925 4.66933 7.17458 5.13867 7.85725 6.12C7.85725 4.456 8.17725 3.368 8.81725 2.856C9.45725 2.30133 10.0973 2.30133 10.7373 2.856C11.3773 3.368 11.6973 4.456 11.6973 6.12C11.6973 4.88266 11.9959 3.96533 12.5933 3.368C13.1906 2.77066 13.8733 2.472 14.6413 2.472C15.4093 2.472 16.0919 2.77066 16.6893 3.368C17.2866 3.96533 17.5853 4.88266 17.5853 6.12C17.5853 5.096 17.8626 4.34933 18.4173 3.88C19.0146 3.368 19.6759 3.112 20.4013 3.112C21.1266 3.112 21.7666 3.368 22.3213 3.88C22.9186 4.34933 23.2173 5.096 23.2173 6.12C23.3453 5.13867 23.8573 4.456 24.7533 4.072C25.6919 3.688 26.7159 3.58133 27.8253 3.752C28.9346 3.88 29.8733 4.24266 30.6413 4.84C31.4093 5.43733 31.7293 6.22666 31.6012 7.208C32.2413 5.672 32.9026 4.75467 33.5853 4.456C34.2679 4.15733 34.7373 4.37067 34.9933 5.096C35.2493 5.77866 35.0786 6.888 34.4813 8.424C35.0359 7.86933 35.7186 7.76266 36.5293 8.104C37.3826 8.40266 38.1719 8.936 38.8973 9.704C39.6653 10.472 40.1773 11.2827 40.4333 12.136C40.7319 12.9893 40.6039 13.6933 40.0493 14.248C41.1586 13.992 42.0333 14.056 42.6733 14.44C43.3559 14.7813 43.7613 15.272 43.8893 15.912C44.0599 16.5093 43.9106 17.1067 43.4413 17.704C43.0146 18.3013 42.2466 18.728 41.1373 18.984C41.9053 19.1973 42.3746 19.7733 42.5453 20.712C42.7159 21.608 42.6519 22.6107 42.3533 23.72C42.0546 24.7867 41.5853 25.6827 40.9453 26.408C40.3479 27.0907 39.6653 27.3253 38.8973 27.112C39.7079 28.0507 39.9639 28.968 39.6653 29.864C39.4093 30.76 38.9186 31.4213 38.1933 31.848C38.4493 32.488 37.9373 33.064 36.6573 33.576C37.4679 33.6187 38.1933 33.9387 38.8333 34.536C39.4733 35.1333 39.9426 35.8587 40.2413 36.712C40.5399 37.5227 40.5826 38.3333 40.3693 39.144C40.1559 39.9547 39.6226 40.616 38.7693 41.128C40.0493 40.4027 41.0306 40.104 41.7133 40.232C42.4386 40.3173 42.7373 40.6587 42.6093 41.256C42.4813 41.8107 41.8626 42.4507 40.7533 43.176C41.7346 42.664 42.5453 42.6213 43.1853 43.048C43.8253 43.432 44.1239 44.0293 44.0813 44.84C44.0813 45.608 43.5693 46.3547 42.5453 47.08C42.5453 47.9333 42.2253 48.616 41.5853 49.128C40.9879 49.64 40.2413 49.9813 39.3453 50.152C38.4493 50.3227 37.5533 50.3227 36.6573 50.152C35.7613 49.9813 34.9933 49.64 34.3533 49.128C33.7559 48.616 33.4573 47.9333 33.4573 47.08C33.0733 47.9333 32.4973 48.4453 31.7293 48.616C30.9613 48.744 30.1933 48.6373 29.4253 48.296C28.6573 47.9547 28.0813 47.4427 27.6973 46.76C27.3133 46.0347 27.3133 45.2667 27.6973 44.456C26.8866 44.7973 26.1399 44.84 25.4573 44.584C24.8173 44.2853 24.3266 43.816 23.9853 43.176C23.6439 42.536 23.5159 41.8747 23.6013 41.192C23.7293 40.4667 24.1346 39.8693 24.8173 39.4C23.9639 39.784 23.0893 39.6773 22.1933 39.08C21.3399 38.4827 20.7213 37.7147 20.3373 36.776C20.0386 36.9467 19.6973 37.032 19.3133 37.032C19.5266 37.8 19.4199 38.568 18.9933 39.336C18.6093 40.0613 17.9053 40.424 16.8813 40.424C17.7346 40.424 18.3746 40.6587 18.8013 41.128C19.2279 41.5973 19.4413 42.1307 19.4413 42.728C19.4413 43.3253 19.2279 43.8587 18.8013 44.328C18.3746 44.7547 17.7346 44.968 16.8813 44.968C17.5213 45.8213 17.7346 46.568 17.5213 47.208C17.3079 47.8053 16.8599 48.1467 16.1772 48.232C15.5373 48.2747 14.8973 47.8907 14.2573 47.08C14.2573 48.104 13.9159 48.8933 13.2333 49.448C12.5933 50.0027 11.7826 50.28 10.8013 50.28C9.86258 50.3227 8.92392 50.024 7.98525 49.384C7.04658 48.7867 6.25725 47.8267 5.61725 46.504C4.97725 45.1387 4.67858 43.3467 4.72125 41.128ZM16.8813 20.776C17.7346 20.776 18.3319 21.096 18.6733 21.736C19.0573 22.3333 19.2279 22.9093 19.1853 23.464C19.8679 22.952 20.7853 22.696 21.9373 22.696C23.0893 22.6533 23.9853 22.8667 24.6253 23.336C24.5826 22.6107 24.8173 21.8213 25.3293 20.968C25.8413 20.072 26.4173 19.496 27.0573 19.24C26.5026 19.0267 26.3533 18.7067 26.6093 18.28C25.7986 18.4933 25.1373 18.3013 24.6253 17.704C24.1559 17.1067 24.0919 16.424 24.4333 15.656C23.9213 15.912 23.2813 16.04 22.5133 16.04C21.7879 16.04 21.1053 15.9333 20.4653 15.72C19.8253 15.464 19.4199 15.1013 19.2493 14.632C19.3346 15.4853 19.0786 15.9973 18.4813 16.168C18.5239 16.5947 18.4173 17 18.1613 17.384C17.9053 17.768 17.4786 17.96 16.8813 17.96C17.6919 17.96 18.2253 18.1947 18.4813 18.664C18.7799 19.1333 18.7799 19.6027 18.4813 20.072C18.2253 20.5413 17.6919 20.776 16.8813 20.776ZM61.5433 47.848C61.2873 48.744 60.8179 49.32 60.1353 49.576C59.4526 49.8747 58.7273 49.9173 57.9593 49.704C57.2339 49.5333 56.6366 49.1493 56.1673 48.552C55.6979 47.9547 55.5913 47.208 55.8473 46.312C55.3779 46.952 54.8233 47.3147 54.1833 47.4C53.5433 47.4427 52.9459 47.272 52.3913 46.888C51.8793 46.504 51.5379 46.0133 51.3673 45.416C51.2393 44.776 51.4313 44.1147 51.9433 43.432C51.3033 43.7307 50.6633 43.6027 50.0233 43.048C49.3833 42.4507 48.8499 41.6827 48.4233 40.744C47.9966 39.7627 47.7833 38.8453 47.7833 37.992C47.7833 37.1387 48.1033 36.5627 48.7433 36.264C47.9753 36.264 47.3993 35.9013 47.0153 35.176C46.6313 34.4507 46.4393 33.5973 46.4393 32.616C46.4393 31.6347 46.6313 30.7813 47.0153 30.056C47.3993 29.3307 47.9539 28.968 48.6793 28.968C47.5273 28.6267 46.8446 28.1147 46.6313 27.432C46.4179 26.7493 46.5673 26.1733 47.0793 25.704C47.6339 25.2347 48.4873 25.1707 49.6393 25.512C49.2553 25.1707 49.1273 24.68 49.2552 24.04C49.4259 23.3573 49.7673 22.6533 50.2793 21.928C50.7913 21.2027 51.3673 20.5627 52.0073 20.008C52.6473 19.4107 53.2659 18.984 53.8633 18.728C54.5033 18.472 55.0153 18.5147 55.3993 18.856C55.1859 18.1307 55.3779 17.4907 55.9753 16.936C56.6153 16.3813 57.4046 15.976 58.3433 15.72C59.2819 15.4213 60.1566 15.3573 60.9673 15.528C61.7779 15.656 62.2899 16.0827 62.5033 16.808C62.5459 15.9973 63.0153 15.4427 63.9113 15.144C64.8499 14.8027 65.8739 14.6747 66.9833 14.76C68.1353 14.8453 69.1379 15.1227 69.9913 15.592C70.8446 16.0613 71.2286 16.7013 71.1433 17.512C71.4846 16.7013 71.9539 16.2747 72.5513 16.232C73.1913 16.1467 73.7033 16.3387 74.0873 16.808C74.5139 17.2773 74.5779 17.9173 74.2793 18.728C74.7486 18.2587 75.3673 18.1947 76.1353 18.536C76.9459 18.8347 77.7139 19.3467 78.4393 20.072C79.2073 20.7973 79.7406 21.5653 80.0393 22.376C80.3806 23.1867 80.3166 23.8267 79.8473 24.296C80.4873 24.168 81.0633 24.3813 81.5753 24.936C82.1299 25.4907 82.5566 26.216 82.8553 27.112C83.1966 28.008 83.3886 28.9467 83.4313 29.928C83.4739 30.8667 83.3673 31.6987 83.1113 32.424C82.8553 33.1493 82.3859 33.576 81.7033 33.704C82.9406 34.2587 83.4953 34.6853 83.3673 34.984C83.2393 35.24 82.5566 35.0907 81.3193 34.536C81.3193 35.0907 80.9566 35.5173 80.2313 35.816C79.5486 36.072 78.7593 36.2 77.8633 36.2C76.9673 36.2 76.1566 36.072 75.4313 35.816C74.7486 35.5173 74.4073 35.0907 74.4073 34.536C74.4073 35.2613 74.0873 35.816 73.4473 36.2C72.8073 36.5413 72.0606 36.7333 71.2073 36.776C70.3966 36.776 69.6713 36.6053 69.0313 36.264C68.3913 35.88 68.0713 35.3467 68.0713 34.664C68.1139 35.3893 67.7513 35.9867 66.9833 36.456C66.2579 36.8827 65.4259 37.1387 64.4873 37.224C64.9139 37.736 65.2553 38.2907 65.5113 38.888C65.8099 39.4427 66.0019 39.9547 66.0873 40.424C66.5139 39.9547 67.1539 39.5493 68.0073 39.208C68.8606 38.8667 69.7353 38.6533 70.6313 38.568C71.5273 38.4827 72.3166 38.5467 72.9993 38.76C73.7246 38.9307 74.1513 39.3147 74.2793 39.912C74.2793 39.1867 74.5566 38.632 75.1113 38.248C75.7086 37.864 76.3913 37.672 77.1593 37.672C77.9273 37.672 78.5886 37.864 79.1433 38.248C79.7406 38.632 80.0393 39.1867 80.0393 39.912C80.8926 40.0827 81.4046 40.4453 81.5753 41C81.7459 41.512 81.6393 41.9813 81.2553 42.408C80.8713 42.792 80.2739 42.8987 79.4633 42.728C79.8473 43.2827 79.9113 43.8587 79.6553 44.456C79.3993 45.0107 78.9726 45.5013 78.3753 45.928C77.8206 46.312 77.2233 46.5253 76.5833 46.568C75.9859 46.6107 75.4953 46.376 75.1113 45.864C75.3673 46.6747 75.2393 47.3787 74.7273 47.976C74.2579 48.5733 73.6179 49 72.8073 49.256C71.9966 49.512 71.2073 49.512 70.4393 49.256C69.7139 49.0427 69.2233 48.5307 68.9673 47.72C69.0526 48.872 68.7326 49.6613 68.0073 50.088C67.3246 50.5147 66.3859 50.536 65.1913 50.152C64.0393 49.8107 62.8233 49.0427 61.5433 47.848ZM64.1673 29.736C64.1673 28.8827 64.4019 28.4133 64.8713 28.328C65.3406 28.2 65.6606 28.456 65.8313 29.096C65.9593 28.712 66.2153 28.3493 66.5993 28.008C66.9833 27.6667 67.3886 27.432 67.8153 27.304C67.3033 26.92 66.8766 26.3653 66.5353 25.64C66.1939 24.9147 66.0873 24.2747 66.2153 23.72C65.8313 23.9333 65.3619 24.0613 64.8073 24.104C64.2953 24.1467 63.8473 24.0827 63.4633 23.912C63.5913 24.3813 63.5699 24.936 63.3993 25.576C63.2286 26.216 62.9513 26.792 62.5673 27.304C62.2259 27.816 61.8206 28.0933 61.3513 28.136C61.9059 28.264 62.3113 28.5627 62.5673 29.032C62.8659 29.5013 63.3993 29.736 64.1673 29.736ZM94.7253 43.752C93.9999 43.9653 93.3813 43.9227 92.8693 43.624C92.3999 43.3253 92.0799 42.92 91.9093 42.408C91.7386 41.8533 91.7599 41.32 91.9733 40.808C92.2293 40.2533 92.7199 39.848 93.4453 39.592C92.5919 39.8907 91.8026 39.6987 91.0773 39.016C90.3946 38.2907 89.8826 37.3947 89.5413 36.328C89.1999 35.2187 89.1146 34.1947 89.2853 33.256C89.4559 32.2747 89.9679 31.656 90.8213 31.4C89.8399 31.6987 89.0933 31.6773 88.5813 31.336C88.1119 30.9947 87.9626 30.568 88.1333 30.056C88.3466 29.5013 88.9653 29.0533 89.9893 28.712C89.1359 29.0107 88.3893 28.9467 87.7493 28.52C87.1093 28.0507 86.6613 27.432 86.4053 26.664C86.1919 25.896 86.2133 25.1493 86.4693 24.424C86.7253 23.6987 87.3013 23.1867 88.1973 22.888C87.4293 23.144 86.7466 23.0587 86.1493 22.632C85.5946 22.1627 85.1893 21.5653 84.9333 20.84C84.7199 20.1147 84.6986 19.4107 84.8693 18.728C85.0826 18.0453 85.5733 17.576 86.3413 17.32C86.3413 16.424 86.6826 15.7627 87.3653 15.336C88.0906 14.9093 88.9226 14.696 89.8613 14.696C90.7999 14.696 91.6319 14.9093 92.3573 15.336C93.0826 15.7627 93.4453 16.424 93.4453 17.32C93.9573 16.808 94.5759 16.6587 95.3013 16.872C96.0266 17.0853 96.7093 17.512 97.3493 18.152C97.9893 18.7493 98.3946 19.432 98.5653 20.2C98.7786 20.9253 98.6293 21.544 98.1173 22.056C98.6293 21.8853 99.1413 22.0773 99.6533 22.632C100.208 23.144 100.677 23.8693 101.061 24.808C101.445 25.704 101.723 26.6 101.893 27.496C102.277 27.1547 102.704 26.92 103.173 26.792C103.643 26.6213 104.091 26.6213 104.517 26.792C104.176 26.3653 104.027 25.7467 104.069 24.936C104.112 24.0827 104.283 23.2293 104.581 22.376C104.923 21.48 105.328 20.7547 105.797 20.2C106.309 19.6453 106.843 19.4533 107.397 19.624C107.184 19.0693 107.397 18.536 108.037 18.024C108.677 17.4693 109.467 17.0427 110.405 16.744C111.344 16.4453 112.219 16.3387 113.029 16.424C113.883 16.4667 114.395 16.7653 114.565 17.32C115.504 16.8933 116.251 16.8933 116.805 17.32C117.36 17.704 117.616 18.2373 117.573 18.92C117.531 19.6027 117.04 20.1573 116.101 20.584C116.827 20.3707 117.445 20.4773 117.957 20.904C118.512 21.3307 118.896 21.9067 119.109 22.632C119.323 23.3147 119.323 23.976 119.109 24.616C118.939 25.256 118.491 25.704 117.765 25.96C118.277 25.7467 118.747 25.8533 119.173 26.28C119.643 26.664 119.984 27.1547 120.197 27.752C120.539 27.496 120.923 27.3467 121.349 27.304C121.776 27.2187 122.181 27.2827 122.565 27.496C122.267 26.9413 122.203 26.216 122.373 25.32C122.544 24.424 122.864 23.656 123.333 23.016C123.845 22.376 124.4 22.1413 124.997 22.312C124.443 21.8427 124.229 21.2453 124.357 20.52C124.528 19.752 124.891 19.048 125.445 18.408C126 17.7253 126.64 17.256 127.365 17C128.091 16.744 128.731 16.8507 129.285 17.32C129.243 16.552 129.605 15.976 130.373 15.592C131.141 15.208 132.016 15.016 132.997 15.016C133.979 14.9733 134.853 15.144 135.621 15.528C136.389 15.912 136.773 16.488 136.773 17.256C137.584 17.512 138.075 18.1093 138.245 19.048C138.416 19.9867 138.331 20.9893 137.989 22.056C137.648 23.1227 137.136 23.9973 136.453 24.68C135.813 25.3627 135.088 25.576 134.277 25.32C135.259 25.6613 135.856 26.088 136.069 26.6C136.283 27.0693 136.155 27.4533 135.685 27.752C135.216 28.0507 134.491 28.0507 133.509 27.752C134.661 28.136 135.344 28.6693 135.557 29.352C135.771 30.0347 135.579 30.6107 134.981 31.08C134.427 31.5067 133.573 31.528 132.421 31.144C133.189 31.4 133.68 31.848 133.893 32.488C134.107 33.128 134.085 33.8107 133.829 34.536C133.616 35.2187 133.232 35.7733 132.677 36.2C132.123 36.6267 131.461 36.712 130.693 36.456C131.76 36.7973 132.379 37.3093 132.549 37.992C132.72 38.6747 132.528 39.2507 131.973 39.72C131.461 40.1467 130.693 40.1893 129.669 39.848C130.437 40.104 130.907 40.5947 131.077 41.32C131.248 42.0453 131.205 42.8133 130.949 43.624C130.736 44.4347 130.331 45.096 129.733 45.608C129.179 46.0773 128.517 46.184 127.749 45.928C128.091 46.6533 128.069 47.2507 127.685 47.72C127.344 48.1893 126.875 48.4453 126.277 48.488C125.68 48.488 125.189 48.1253 124.805 47.4C124.677 48.0827 124.187 48.5093 123.333 48.68C122.523 48.808 121.605 48.7653 120.581 48.552C119.6 48.296 118.768 47.9333 118.085 47.464C117.403 46.952 117.125 46.3547 117.253 45.672C116.784 45.8427 116.315 45.672 115.845 45.16C115.376 44.6053 114.992 43.9227 114.693 43.112C114.395 42.3013 114.245 41.5333 114.245 40.808C114.288 40.0827 114.565 39.6347 115.077 39.464C114.395 39.72 113.691 39.3573 112.965 38.376C112.283 37.352 111.771 36.2213 111.429 34.984C110.832 35.4107 110.235 35.4747 109.637 35.176C110.107 35.3467 110.384 35.7947 110.469 36.52C110.555 37.2027 110.469 37.992 110.213 38.888C110 39.784 109.68 40.6587 109.253 41.512C108.869 42.3653 108.421 43.048 107.909 43.56C107.44 44.0293 106.971 44.1787 106.501 44.008C107.525 44.392 108.123 44.8613 108.293 45.416C108.464 45.9707 108.293 46.4187 107.781 46.76C107.312 47.0587 106.565 47.016 105.541 46.632C105.883 47.5707 105.925 48.2747 105.669 48.744C105.413 49.1707 105.051 49.2773 104.581 49.064C104.112 48.8933 103.707 48.3387 103.365 47.4C103.365 48.296 103.003 48.936 102.277 49.32C101.552 49.7467 100.677 49.8533 99.6533 49.64C98.6293 49.4267 97.6479 48.8507 96.7093 47.912C95.8133 46.9307 95.1519 45.544 94.7253 43.752ZM144.206 6.696C143.31 6.48267 142.692 6.09867 142.35 5.544C142.009 4.98933 141.902 4.456 142.03 3.944C142.201 3.38933 142.564 2.96267 143.118 2.664C143.673 2.36533 144.42 2.344 145.358 2.6C145.358 1.96 145.657 1.46933 146.254 1.128C146.852 0.743998 147.598 0.487998 148.494 0.359997C149.39 0.231998 150.286 0.231998 151.182 0.359997C152.121 0.487998 152.889 0.743998 153.486 1.128C154.084 1.46933 154.382 1.96 154.382 2.6C155.278 2.472 155.982 2.664 156.494 3.176C157.006 3.64533 157.326 4.264 157.454 5.032C157.582 5.75733 157.454 6.44 157.07 7.08C156.729 7.72 156.132 8.104 155.278 8.232C155.492 8.744 155.342 9.256 154.83 9.768C154.361 10.2373 153.721 10.6427 152.91 10.984C152.142 11.2827 151.396 11.432 150.67 11.432C149.988 11.3893 149.561 11.112 149.39 10.6C149.39 11.2827 149.134 11.7733 148.622 12.072C148.11 12.3707 147.513 12.4133 146.83 12.2C146.148 11.944 145.55 11.3893 145.038 10.536C144.526 9.64 144.249 8.36 144.206 6.696ZM143.886 47.272C143.204 47.272 142.67 46.952 142.286 46.312C141.902 45.672 141.625 44.8827 141.454 43.944C141.326 43.0053 141.326 42.0667 141.454 41.128C141.625 40.1893 141.902 39.4213 142.286 38.824C142.67 38.184 143.204 37.864 143.886 37.864C143.033 37.864 142.393 37.5227 141.966 36.84C141.54 36.1147 141.326 35.304 141.326 34.408C141.326 33.512 141.54 32.7227 141.966 32.04C142.393 31.3147 143.033 30.952 143.886 30.952C143.161 30.952 142.585 30.632 142.158 29.992C141.732 29.352 141.433 28.5627 141.262 27.624C141.134 26.6853 141.134 25.7467 141.262 24.808C141.433 23.8693 141.732 23.1013 142.158 22.504C142.585 21.864 143.161 21.544 143.886 21.544C143.118 21.544 142.542 21.3307 142.158 20.904C141.817 20.4347 141.625 19.9227 141.582 19.368C141.582 18.7707 141.774 18.2587 142.158 17.832C142.542 17.4053 143.118 17.192 143.886 17.192C143.886 16.424 144.142 15.8693 144.654 15.528C145.209 15.144 145.828 14.9733 146.51 15.016C147.236 15.016 147.854 15.208 148.366 15.592C148.878 15.976 149.134 16.552 149.134 17.32C149.134 16.68 149.369 16.2107 149.838 15.912C150.308 15.6133 150.862 15.464 151.502 15.464C152.142 15.464 152.697 15.6133 153.166 15.912C153.678 16.2107 153.934 16.68 153.934 17.32C154.574 16.808 155.129 16.6587 155.598 16.872C156.11 17.0853 156.388 17.448 156.43 17.96C156.516 18.472 156.238 18.984 155.598 19.496C156.366 19.496 156.921 19.8587 157.262 20.584C157.646 21.3093 157.838 22.1413 157.838 23.08C157.838 24.0187 157.646 24.8507 157.262 25.576C156.921 26.2587 156.366 26.6 155.598 26.6C156.281 26.6 156.793 26.9627 157.134 27.688C157.476 28.4133 157.646 29.2453 157.646 30.184C157.646 31.1227 157.476 31.9547 157.134 32.68C156.793 33.4053 156.281 33.768 155.598 33.768C156.11 33.768 156.516 34.1093 156.814 34.792C157.156 35.432 157.369 36.264 157.454 37.288C157.582 38.2693 157.582 39.2507 157.454 40.232C157.369 41.2133 157.156 42.0453 156.814 42.728C156.516 43.368 156.11 43.688 155.598 43.688C156.537 43.8587 157.113 44.2853 157.326 44.968C157.54 45.608 157.433 46.2267 157.006 46.824C156.58 47.3787 155.897 47.5707 154.958 47.4C154.958 48.4667 154.745 49.1707 154.318 49.512C153.892 49.896 153.465 49.896 153.038 49.512C152.612 49.1707 152.398 48.4667 152.398 47.4C152.398 48.296 151.972 48.9787 151.118 49.448C150.308 49.9173 149.326 50.1307 148.174 50.088C147.065 50.088 146.084 49.8533 145.23 49.384C144.377 48.9147 143.929 48.2107 143.886 47.272ZM167.633 47.784C166.951 47.7413 166.439 47.464 166.097 46.952C165.756 46.44 165.585 45.8427 165.585 45.16C165.628 44.4773 165.82 43.9013 166.161 43.432C166.545 42.92 167.079 42.664 167.761 42.664C166.951 42.664 166.332 42.28 165.905 41.512C165.479 40.7013 165.265 39.784 165.265 38.76C165.265 37.6933 165.479 36.776 165.905 36.008C166.332 35.1973 166.951 34.792 167.761 34.792C166.993 34.792 166.417 34.3867 166.033 33.576C165.692 32.7227 165.521 31.7627 165.521 30.696C165.521 29.6293 165.692 28.6907 166.033 27.88C166.417 27.0267 166.993 26.6 167.761 26.6C166.865 26.6 166.183 26.344 165.713 25.832C165.287 25.32 165.073 24.744 165.073 24.104C165.073 23.4213 165.287 22.824 165.713 22.312C166.183 21.8 166.865 21.544 167.761 21.544C167.121 21.416 166.673 21.1173 166.417 20.648C166.161 20.1787 166.076 19.6667 166.161 19.112C166.247 18.5573 166.481 18.1093 166.865 17.768C167.249 17.384 167.761 17.2347 168.401 17.32C168.401 16.5947 168.721 16.0187 169.361 15.592C170.001 15.1653 170.812 14.888 171.793 14.76C172.775 14.5893 173.735 14.5893 174.673 14.76C175.655 14.888 176.465 15.1653 177.105 15.592C177.745 16.0187 178.065 16.5947 178.065 17.32C178.577 16.7653 179.153 16.5947 179.793 16.808C180.476 16.9787 181.031 17.32 181.457 17.832C181.884 17.1493 182.545 16.7653 183.441 16.68C184.337 16.552 185.063 16.9787 185.617 17.96C185.489 17.2347 185.703 16.6373 186.257 16.168C186.855 15.656 187.58 15.3147 188.433 15.144C189.287 14.9733 190.076 15.016 190.801 15.272C191.527 15.4853 191.953 15.9547 192.081 16.68C192.38 16.168 192.871 15.912 193.553 15.912C194.279 15.8693 195.047 16.0187 195.857 16.36C196.711 16.7013 197.5 17.128 198.225 17.64C198.951 18.152 199.484 18.7067 199.825 19.304C200.209 19.9013 200.252 20.456 199.953 20.968C200.892 20.5413 201.639 20.4987 202.193 20.84C202.748 21.1813 202.983 21.6933 202.897 22.376C202.855 23.016 202.364 23.5493 201.425 23.976C202.193 23.8907 202.812 24.1467 203.281 24.744C203.751 25.3413 204.028 26.0667 204.113 26.92C204.241 27.7307 204.156 28.4987 203.857 29.224C203.559 29.9067 203.025 30.2907 202.257 30.376C203.068 30.376 203.665 30.824 204.049 31.72C204.476 32.5733 204.689 33.576 204.689 34.728C204.689 35.88 204.476 36.904 204.049 37.8C203.665 38.6533 203.068 39.08 202.257 39.08C203.153 39.08 203.729 39.3787 203.985 39.976C204.284 40.5733 204.284 41.1707 203.985 41.768C203.729 42.3653 203.153 42.664 202.257 42.664C203.025 42.7493 203.559 43.0693 203.857 43.624C204.199 44.136 204.327 44.712 204.241 45.352C204.156 45.9493 203.879 46.4613 203.409 46.888C202.983 47.3147 202.385 47.4853 201.617 47.4C201.617 48.0827 201.276 48.616 200.593 49C199.953 49.3413 199.185 49.512 198.289 49.512C197.436 49.512 196.668 49.3413 195.985 49C195.345 48.616 195.025 48.0827 195.025 47.4C195.025 48.168 194.748 48.744 194.193 49.128C193.639 49.5547 192.977 49.768 192.209 49.768C191.484 49.8107 190.844 49.64 190.289 49.256C189.735 48.9147 189.436 48.3387 189.393 47.528C188.881 47.528 188.497 47.1013 188.241 46.248C188.028 45.3947 187.943 44.4133 187.985 43.304C188.071 42.1947 188.263 41.2347 188.561 40.424C188.86 39.5707 189.265 39.144 189.777 39.144C189.095 39.144 188.561 38.888 188.177 38.376C187.793 37.8213 187.58 37.1813 187.537 36.456C187.495 35.7307 187.601 35.048 187.857 34.408C188.156 33.768 188.604 33.3627 189.201 33.192C188.647 33.1493 188.113 32.8507 187.601 32.296C187.089 31.6987 186.62 30.9947 186.193 30.184C185.809 29.3307 185.575 28.4987 185.489 27.688C184.977 28.1147 184.359 28.4133 183.633 28.584C182.951 28.7547 182.332 28.7547 181.777 28.584C181.991 29.096 182.055 29.672 181.969 30.312C181.884 30.952 181.692 31.5067 181.393 31.976C181.095 32.4453 180.689 32.6587 180.177 32.616C180.945 32.616 181.436 32.8293 181.649 33.256C181.905 33.64 181.905 34.0453 181.649 34.472C181.436 34.8987 180.945 35.112 180.177 35.112C180.817 35.112 181.308 35.5173 181.649 36.328C181.991 37.1387 182.161 38.0773 182.161 39.144C182.161 40.2107 181.991 41.1707 181.649 42.024C181.308 42.8347 180.817 43.24 180.177 43.24C180.817 43.624 181.159 44.136 181.201 44.776C181.244 45.3733 181.095 45.9493 180.753 46.504C180.412 47.0587 179.943 47.464 179.345 47.72C178.748 47.9333 178.129 47.8267 177.489 47.4C177.489 48.04 177.169 48.552 176.529 48.936C175.889 49.2773 175.079 49.512 174.097 49.64C173.159 49.8107 172.199 49.832 171.217 49.704C170.236 49.6187 169.404 49.4053 168.721 49.064C168.039 48.7653 167.676 48.3387 167.633 47.784ZM213.83 45.16C213.062 45.7573 212.422 45.992 211.91 45.864C211.398 45.736 211.121 45.416 211.078 44.904C211.078 44.3493 211.462 43.7733 212.23 43.176C211.334 43.4747 210.588 43.4747 209.99 43.176C209.393 42.8347 208.966 42.344 208.71 41.704C208.497 41.064 208.518 40.424 208.774 39.784C209.03 39.144 209.585 38.6747 210.438 38.376C209.5 38.4187 208.774 38.1413 208.262 37.544C207.75 36.9467 207.452 36.2213 207.366 35.368C207.324 34.5147 207.516 33.7467 207.942 33.064C208.369 32.3813 209.052 31.9973 209.99 31.912C209.094 31.8267 208.454 31.4 208.07 30.632C207.729 29.864 207.601 29.0107 207.686 28.072C207.814 27.1333 208.134 26.344 208.646 25.704C209.201 25.0213 209.926 24.744 210.822 24.872C210.054 24.4453 209.585 23.8907 209.414 23.208C209.286 22.5253 209.372 21.8853 209.67 21.288C210.012 20.6907 210.481 20.2853 211.078 20.072C211.718 19.816 212.444 19.9013 213.254 20.328C212.828 19.6453 212.764 18.984 213.062 18.344C213.404 17.6613 213.916 17.1067 214.598 16.68C215.281 16.2533 215.985 16.0613 216.71 16.104C217.436 16.104 218.012 16.4453 218.438 17.128C218.481 16.5733 218.822 16.168 219.462 15.912C220.102 15.656 220.87 15.528 221.766 15.528C222.705 15.4853 223.622 15.5707 224.518 15.784C225.414 15.9547 226.161 16.232 226.758 16.616C227.356 16.9573 227.633 17.4053 227.59 17.96C227.676 17.2347 227.868 16.68 228.166 16.296C228.508 15.8693 228.892 15.6133 229.318 15.528C229.361 14.8027 229.617 14.1627 230.086 13.608C230.556 13.0533 231.153 12.84 231.878 12.968C231.068 12.8827 230.449 12.4987 230.022 11.816C229.638 11.0907 229.446 10.28 229.446 9.384C229.489 8.488 229.724 7.72 230.15 7.08C230.62 6.39733 231.281 6.056 232.134 6.056C231.58 4.98933 231.324 4.22133 231.366 3.752C231.452 3.24 231.729 3.09066 232.198 3.304C232.668 3.47466 233.201 4.09333 233.798 5.16C233.798 4.43466 234.118 3.90133 234.758 3.56C235.441 3.21866 236.209 3.048 237.062 3.048C237.916 3.048 238.662 3.21866 239.302 3.56C239.985 3.90133 240.326 4.43466 240.326 5.16C240.753 4.776 241.265 4.712 241.862 4.968C242.502 5.224 243.078 5.65066 243.59 6.248C244.102 6.84533 244.444 7.464 244.614 8.104C244.785 8.744 244.657 9.256 244.23 9.64C244.956 9.64 245.489 10.0667 245.83 10.92C246.172 11.7307 246.342 12.6693 246.342 13.736C246.342 14.8027 246.172 15.7627 245.83 16.616C245.489 17.4267 244.956 17.832 244.23 17.832C244.87 17.832 245.361 18.1733 245.702 18.856C246.086 19.496 246.342 20.3067 246.47 21.288C246.598 22.2267 246.598 23.1867 246.47 24.168C246.342 25.1067 246.086 25.9173 245.702 26.6C245.361 27.24 244.87 27.56 244.23 27.56C245.212 27.56 245.852 27.7733 246.15 28.2C246.492 28.6267 246.492 29.0533 246.15 29.48C245.852 29.9067 245.212 30.12 244.23 30.12C245.468 30.12 246.278 30.44 246.662 31.08C247.089 31.72 247.089 32.36 246.662 33C246.278 33.64 245.468 33.96 244.23 33.96C244.742 33.96 245.148 34.2587 245.446 34.856C245.788 35.4533 246.001 36.2 246.086 37.096C246.214 37.992 246.214 38.888 246.086 39.784C246.001 40.68 245.788 41.4267 245.446 42.024C245.148 42.6213 244.742 42.92 244.23 42.92C245.169 43.048 245.83 43.368 246.214 43.88C246.641 44.392 246.812 44.9467 246.726 45.544C246.641 46.1413 246.321 46.632 245.766 47.016C245.254 47.4 244.529 47.528 243.59 47.4C243.59 48.0827 243.334 48.5947 242.822 48.936C242.353 49.2347 241.798 49.384 241.158 49.384C240.561 49.384 240.006 49.2347 239.494 48.936C239.025 48.5947 238.79 48.0827 238.79 47.4C238.705 48.168 238.342 48.7013 237.702 49C237.105 49.2987 236.422 49.4053 235.654 49.32C234.929 49.2347 234.289 48.9787 233.734 48.552C233.222 48.1253 233.009 47.5493 233.094 46.824C233.094 47.6773 232.838 48.3173 232.326 48.744C231.857 49.1707 231.302 49.4053 230.662 49.448C230.022 49.4907 229.425 49.3413 228.87 49C228.358 48.6587 228.017 48.1253 227.846 47.4C227.804 48.3387 227.185 48.9787 225.99 49.32C224.838 49.6613 223.217 49.5333 221.126 48.936C219.036 48.3387 216.604 47.08 213.83 45.16ZM232.198 32.232C231.601 32.232 231.238 31.976 231.11 31.464C230.982 30.952 231.132 30.568 231.558 30.312C231.132 30.312 230.662 30.0987 230.15 29.672C229.638 29.2027 229.19 28.6693 228.806 28.072C228.465 27.4747 228.252 26.8987 228.166 26.344C227.782 26.728 227.249 26.984 226.566 27.112C225.884 27.24 225.308 27.176 224.838 26.92C224.966 27.4747 224.924 28.136 224.71 28.904C224.54 29.672 224.262 30.3333 223.878 30.888C223.494 31.4427 223.11 31.656 222.726 31.528C223.068 31.6133 223.324 31.9333 223.494 32.488C223.665 33.0427 223.729 33.6187 223.686 34.216C223.644 34.8133 223.473 35.2613 223.174 35.56C223.729 35.5173 224.433 35.7733 225.286 36.328C226.182 36.84 227.036 37.3947 227.846 37.992C228.657 38.5893 229.233 38.9947 229.574 39.208C229.148 38.8667 228.998 38.3333 229.126 37.608C229.297 36.8827 229.617 36.2 230.086 35.56C230.556 34.8773 231.046 34.5147 231.558 34.472C230.876 34.2587 230.598 33.832 230.726 33.192C230.854 32.5093 231.345 32.1893 232.198 32.232Z" fill="#B8D5F1"/>
</svg>
